<svg width="98" height="29" viewBox="0 0 98 29" fill="none" xmlns="http://www.w3.org/2000/svg">
<g clip-path="url(#clip0)">
<path d="M93.3992 0.226562H4.60112C2.18714 0.226562 0.230225 2.15384 0.230225 4.53125V24.4687C0.230225 26.8462 2.18714 28.7734 4.60112 28.7734H93.3992C95.8132 28.7734 97.7701 26.8462 97.7701 24.4687V4.53125C97.7701 2.15384 95.8132 0.226562 93.3992 0.226562Z" stroke="white"/>
<path d="M32.8399 8.20638L32.9982 5.71732H34.8584V9.43104H32.4995V9.40449C32.7387 9.11907 32.8062 8.75398 32.8399 8.20638ZM31.9502 9.96868H35.5087V10.9145H36.0715V9.43104H35.4649V5.17969H32.4557L32.2704 8.1931C32.2333 8.82037 32.1019 9.24517 31.748 9.43104H31.3875V10.9145H31.9502V9.96868ZM38.6927 10.0284C39.6598 10.0284 40.3136 9.34141 40.3136 8.2429C40.3136 7.14108 39.6598 6.45741 38.6927 6.45741C37.7222 6.45741 37.0685 7.14108 37.0685 8.2429C37.0685 9.34141 37.7222 10.0284 38.6927 10.0284ZM38.6927 9.52063C38.0727 9.52063 37.6649 9.05599 37.6649 8.2429C37.6649 7.42982 38.0727 6.96518 38.6927 6.96518C39.3128 6.96518 39.7171 7.42982 39.7171 8.2429C39.7171 9.05599 39.3128 9.52063 38.6927 9.52063ZM44.4377 7.64886C44.3636 7.02821 43.8413 6.45741 42.9651 6.45741C41.9979 6.45741 41.3543 7.15436 41.3543 8.2429C41.3543 9.35469 42.0014 10.0284 42.9718 10.0284C43.7671 10.0284 44.3535 9.54387 44.4445 8.85689H43.8682C43.7671 9.27172 43.4537 9.52063 42.9752 9.52063C42.3686 9.52063 41.9508 9.04607 41.9508 8.2429C41.9508 7.45968 42.3619 6.96518 42.9685 6.96518C43.4841 6.96518 43.7806 7.2738 43.8649 7.64886H44.4377ZM48.0968 6.51713H45.2527V6.99173H46.3816V9.96868H46.9677V6.99173H48.0968V6.51713ZM49.4881 11.2597C50.1217 11.2597 50.4115 11.0174 50.7111 10.211L52.0895 6.51713H51.473L50.5022 9.39121H50.4921L49.5217 6.51713H48.8951L50.1889 9.97198L50.1079 10.2143C49.9731 10.6158 49.7913 10.7718 49.4642 10.7718C49.3901 10.7718 49.2995 10.7685 49.2351 10.7552V11.2398C49.2995 11.2531 49.4173 11.2597 49.4881 11.2597ZM55.4353 9.96868H56.0252V6.51713H53.1675V9.96868H53.7537V6.99173H55.4353V9.96868ZM59.7008 9.96868H60.2875V6.51713H59.7008V7.9409H57.9856V6.51713H57.3995V9.96868H57.9856V8.4155H59.7008V9.96868ZM63.1207 10.0284C64.0878 10.0284 64.7416 9.34141 64.7416 8.2429C64.7416 7.14108 64.0878 6.45741 63.1207 6.45741C62.1504 6.45741 61.4966 7.14108 61.4966 8.2429C61.4966 9.34141 62.1504 10.0284 63.1207 10.0284ZM63.1207 9.52063C62.5005 9.52063 62.0929 9.05599 62.0929 8.2429C62.0929 7.42982 62.5005 6.96518 63.1207 6.96518C63.7409 6.96518 64.1454 7.42982 64.1454 8.2429C64.1454 9.05599 63.7409 9.52063 63.1207 9.52063ZM69.4281 9.96868C70.1726 9.96868 70.6308 9.58701 70.6308 8.97638C70.6308 8.55488 70.341 8.24621 69.8997 8.18649V8.15994C70.2232 8.09355 70.4758 7.76499 70.4758 7.40988C70.4758 6.85566 70.075 6.51713 69.418 6.51713H67.9181V9.96868H69.4281ZM68.5047 6.98507H69.3301C69.6978 6.98507 69.8965 7.15767 69.8965 7.46965C69.8965 7.80482 69.684 7.96745 69.2427 7.96745H68.5047V6.98507ZM68.5047 8.43208H69.2897C69.8022 8.43208 70.0479 8.60463 70.0479 8.9631C70.0479 9.31155 69.8188 9.50073 69.3941 9.50073H68.5047V8.43208Z" fill="white"/>
<path d="M38.277 23.1092H39.821L36.4268 13.8505H34.8501L31.4558 23.1092H32.9738L33.8338 20.6069H37.417L38.277 23.1092ZM35.6059 15.3904H35.6449L37.0457 19.4519H34.2051L35.6059 15.3904ZM44.2578 16.2502C43.2675 16.2502 42.4792 16.7443 42.0752 17.5206H42.0492V16.3593H40.6875V25.3421H42.0948V21.9992H42.1274C42.5183 22.7499 43.3 23.2248 44.2838 23.2248C46.0038 23.2248 47.144 21.8709 47.144 19.7343C47.144 17.5976 45.9973 16.2502 44.2578 16.2502ZM43.8864 22.0506C42.8049 22.0506 42.0883 21.1394 42.0883 19.7343C42.0883 18.3419 42.8114 17.418 43.8864 17.418C45.0005 17.418 45.6976 18.3227 45.6976 19.7343C45.6976 21.1523 45.0005 22.0506 43.8864 22.0506ZM51.802 16.2502C50.8119 16.2502 50.0237 16.7443 49.6198 17.5206H49.5935V16.3593H48.2321V25.3421H49.6391V21.9992H49.6718C50.0628 22.7499 50.8445 23.2248 51.8282 23.2248C53.548 23.2248 54.6882 21.8709 54.6882 19.7343C54.6882 17.5976 53.5416 16.2502 51.802 16.2502ZM51.4307 22.0506C50.3495 22.0506 49.6326 21.1394 49.6326 19.7343C49.6326 18.3419 50.3559 17.418 51.4307 17.418C52.545 17.418 53.2421 18.3227 53.2421 19.7343C53.2421 21.1523 52.545 22.0506 51.4307 22.0506ZM58.2323 20.5684C58.3238 22.2174 59.7372 23.2632 61.8615 23.2632C64.0501 23.2632 65.4447 22.1661 65.4447 20.4208C65.4447 19.0734 64.6368 18.297 62.6689 17.8864L61.6397 17.6746C60.4214 17.418 59.9392 16.9688 59.9392 16.2951C59.9392 15.4482 60.7471 14.922 61.8481 14.922C62.9882 14.922 63.7635 15.4931 63.8551 16.4234H65.2685C65.2229 14.8066 63.8615 13.6965 61.8679 13.6965C59.8679 13.6965 58.454 14.7873 58.454 16.3721C58.454 17.7067 59.3075 18.5665 61.1902 18.9579L62.213 19.1696C63.4704 19.4391 63.9655 19.8883 63.9655 20.6069C63.9655 21.4346 63.112 22.0377 61.9199 22.0377C60.6689 22.0377 59.7832 21.4859 59.6526 20.5684H58.2323ZM67.0016 14.7616V16.3593H66.0046V17.4565H67.0016V21.3319C67.0016 22.6344 67.5423 23.1542 68.9299 23.1542C69.2428 23.1542 69.5556 23.1285 69.7121 23.09V21.9928C69.6205 22.0121 69.3928 22.0249 69.2492 22.0249C68.6759 22.0249 68.4155 21.7618 68.4155 21.1779V17.4565H69.7185V16.3593H68.4155V14.7616H67.0016ZM73.6532 23.2376C75.6146 23.2376 76.9042 21.9094 76.9042 19.7343C76.9042 17.5655 75.6082 16.2374 73.6532 16.2374C71.6987 16.2374 70.4027 17.5655 70.4027 19.7343C70.4027 21.9094 71.6923 23.2376 73.6532 23.2376ZM73.6532 22.0955C72.5522 22.0955 71.8358 21.2357 71.8358 19.7343C71.8358 18.2392 72.5522 17.3795 73.6532 17.3795C74.7547 17.3795 75.4711 18.2392 75.4711 19.7343C75.4711 21.2357 74.7611 22.0955 73.6532 22.0955ZM77.9924 23.1092H79.3998V19.067C79.3998 18.1109 79.9602 17.5142 80.8657 17.5142C81.1394 17.5142 81.3869 17.5463 81.4974 17.5912V16.3015C81.3934 16.2823 81.2172 16.2502 81.0152 16.2502C80.2077 16.2502 79.5953 16.7186 79.3671 17.5078H79.3345V16.3593H77.9924V23.1092ZM84.9375 17.3538C85.9212 17.3538 86.5855 18.0788 86.6182 19.1119H83.1914C83.2632 18.0917 83.9538 17.3538 84.9375 17.3538ZM86.6118 21.1266C86.4227 21.7169 85.8301 22.1147 85.0286 22.1147C83.9014 22.1147 83.185 21.3383 83.185 20.1642V20.0807H88.0256V19.606C88.0256 17.5591 86.84 16.2374 84.9375 16.2374C83.0023 16.2374 81.7647 17.649 81.7647 19.7664C81.7647 21.8966 82.983 23.2376 84.9959 23.2376C86.5662 23.2376 87.7519 22.3586 87.9474 21.1266H86.6118Z" fill="white"/>
<path fill-rule="evenodd" clip-rule="evenodd" d="M19.4717 4.98438C18.4985 5.02448 17.3194 5.62088 16.6215 6.42273C15.9941 7.13482 15.4465 8.27125 15.5941 9.36093C16.6806 9.44439 17.7878 8.81944 18.464 8.01723C19.139 7.21352 19.596 6.0982 19.4717 4.98438ZM19.1966 23.9484C20.5152 23.9243 21.3503 22.7738 22.1576 21.6162C23.0423 20.3482 23.433 19.1188 23.4912 18.9355C23.4944 18.9253 23.4966 18.9183 23.4979 18.9148C23.4972 18.9145 23.4956 18.9138 23.493 18.9128C23.3662 18.8622 20.9256 17.8887 20.9013 15.0748C20.8775 12.7511 22.7664 11.5951 22.9743 11.4678C22.9816 11.4634 22.9868 11.4603 22.9898 11.4583C21.8529 9.82715 20.0826 9.60349 19.4518 9.57793C18.5304 9.48649 17.6365 9.83204 16.9062 10.1143C16.442 10.2938 16.0439 10.4477 15.7468 10.4477C15.4161 10.4477 15.0071 10.2884 14.5481 10.1097C13.9473 9.87577 13.2609 9.60852 12.5522 9.62129C10.9109 9.6454 9.39614 10.5585 8.55086 12.0016C6.84382 14.9076 8.11308 19.2136 9.77609 21.5699C10.5901 22.7223 11.558 24.0192 12.8309 23.9725C13.3993 23.9501 13.8038 23.7812 14.2221 23.6064C14.7055 23.4044 15.2075 23.1948 16.0022 23.1948C16.759 23.1948 17.2378 23.398 17.6982 23.5934C18.1386 23.7804 18.5622 23.9602 19.1966 23.9484Z" fill="#FFD362"/>
</g>
<defs>
<clipPath id="clip0">
<rect width="98" height="29" fill="white"/>
</clipPath>
</defs>
</svg>
