<svg width="24" height="24" viewBox="0 0 24 24" fill="none" xmlns="http://www.w3.org/2000/svg">
<mask id="mask0" mask-type="alpha" maskUnits="userSpaceOnUse" x="3" y="3" width="18" height="18">
<path fill-rule="evenodd" clip-rule="evenodd" d="M20.75 5.125V18.875C20.75 19.9102 19.9102 20.75 18.875 20.75H15.543V13.8281H17.9102L18.25 11.1875H15.543V9.5C15.543 8.73438 15.7539 8.21484 16.8516 8.21484H18.25V5.85547C18.0078 5.82422 17.1797 5.75 16.2109 5.75C14.1953 5.75 12.8125 6.98047 12.8125 9.24219V11.1914H10.4375V13.832H12.8164V20.75H5.125C4.08984 20.75 3.25 19.9102 3.25 18.875V5.125C3.25 4.08984 4.08984 3.25 5.125 3.25H18.875C19.9102 3.25 20.75 4.08984 20.75 5.125Z" fill="white"/>
</mask>
<g mask="url(#mask0)">
<rect width="24" height="24" fill="white"/>
</g>
</svg>
