<svg width="65" height="12" viewBox="0 0 65 12" fill="none" xmlns="http://www.w3.org/2000/svg">
<g clip-path="url(#clip0)">
<path d="M9.86057 11.9602L9.8652 3.35709H10.4913L14.6931 11.9509H17.4109L21.6127 3.36172L22.2759 3.34781L22.2527 11.9602L25.6151 11.9602L25.6058 0.198753L19.7344 0.217309L16.052 7.13688L12.5644 0.208034L6.50745 0.226584L6.49817 11.9602H9.86057Z" fill="#2395FF"/>
<path d="M3.98598 0H0V11.9638H3.98598V0Z" fill="#2395FF"/>
<path d="M32.3745 0.161331L26.3666 11.9606L30.151 12L31.3382 9.8815L38.7955 9.84215L39.8318 11.9213L43.7671 11.9606L37.7592 0.161331H32.3745ZM35.0505 2.68648L37.569 7.29077L32.709 7.32356L35.0505 2.68648Z" fill="#2395FF"/>
<path d="M49.5193 0.197988L45.0855 0.224223L49.6505 5.60245L44.1148 11.9514L48.8634 11.9776L52.7462 7.64881L56.4454 11.9776L61.3514 11.9514L55.8157 5.62869L60.3544 0.250459L55.7895 0.171753L52.7462 3.97587L49.5193 0.197988Z" fill="#2395FF"/>
<path d="M62.0425 1.7054H62.4798C62.6363 1.7054 62.7475 1.67986 62.8135 1.62879C62.8795 1.57773 62.9125 1.49384 62.9125 1.37713C62.9125 1.32408 62.902 1.27628 62.8811 1.23373C62.8602 1.19119 62.831 1.15752 62.7934 1.1327C62.7634 1.11213 62.7271 1.09734 62.6845 1.08836C62.642 1.07938 62.5706 1.07489 62.4704 1.07489H62.4027H62.0425V1.7054ZM61.829 2.67951V0.882889H62.4383C62.5739 0.882891 62.6736 0.888723 62.7372 0.900413C62.8009 0.912083 62.8563 0.931146 62.9034 0.957572C62.9772 0.999133 63.0338 1.05601 63.0731 1.12821C63.1123 1.20041 63.132 1.2818 63.132 1.37238C63.132 1.48445 63.1064 1.57943 63.0553 1.65733C63.0042 1.73523 62.9356 1.78338 62.8495 1.80179C62.9152 1.81272 62.9647 1.84471 62.9981 1.89772C63.0314 1.95073 63.0545 2.05349 63.0675 2.20601L63.09 2.46852C63.093 2.50746 63.0988 2.53902 63.1073 2.5632C63.1159 2.58739 63.1288 2.6068 63.1462 2.62142V2.67952H62.9246C62.9093 2.65022 62.8983 2.62033 62.8917 2.58987C62.8851 2.55941 62.8802 2.52224 62.8769 2.47836L62.8567 2.24656C62.8453 2.09233 62.8194 1.99558 62.7791 1.95631C62.7388 1.91705 62.6544 1.89742 62.5261 1.89742H62.0425V2.67952L61.829 2.67951Z" fill="#2395FF"/>
<path d="M64.0244 1.80757C64.0244 2.67753 63.3192 3.38278 62.4492 3.38278C61.5793 3.38278 60.874 2.67753 60.874 1.80757C60.874 0.937606 61.5793 0.232361 62.4492 0.232361C63.3192 0.232361 64.0244 0.937606 64.0244 1.80757Z" stroke="#2395FF" stroke-width="0.1"/>
</g>
<defs>
<clipPath id="clip0">
<rect width="64.1295" height="12" fill="white"/>
</clipPath>
</defs>
</svg>
