<svg width="24" height="24" viewBox="0 0 24 24" fill="none" xmlns="http://www.w3.org/2000/svg">
<mask id="mask0" mask-type="alpha" maskUnits="userSpaceOnUse" x="3" y="3" width="18" height="18">
<path fill-rule="evenodd" clip-rule="evenodd" d="M20.6953 8.38672C20.6289 6.98438 20.3086 5.74219 19.2812 4.71875C18.2578 3.69531 17.0156 3.375 15.6133 3.30469C14.168 3.22266 9.83594 3.22266 8.39062 3.30469C6.99219 3.37109 5.75 3.69141 4.72266 4.71484C3.69531 5.73828 3.37891 6.98047 3.30859 8.38281C3.22656 9.82813 3.22656 14.1602 3.30859 15.6055C3.375 17.0078 3.69531 18.25 4.72266 19.2734C5.75 20.2969 6.98828 20.6172 8.39062 20.6875C9.83594 20.7695 14.168 20.7695 15.6133 20.6875C17.0156 20.6211 18.2578 20.3008 19.2812 19.2734C20.3047 18.25 20.625 17.0078 20.6953 15.6055C20.7773 14.1602 20.7773 9.83203 20.6953 8.38672ZM16.6758 8.37109C17.2539 8.37109 17.7227 7.90625 17.7227 7.32422C17.7227 6.74609 17.2539 6.27734 16.6758 6.27734C16.0977 6.27734 15.6289 6.74609 15.6289 7.32422C15.6289 7.90234 16.0938 8.37109 16.6758 8.37109ZM12.0039 7.50781C9.51954 7.50781 7.51564 9.51172 7.51564 11.9961C7.51564 14.4805 9.51954 16.4844 12.0039 16.4844C14.4883 16.4844 16.4922 14.4805 16.4922 11.9961C16.4922 9.51172 14.4883 7.50781 12.0039 7.50781ZM12.0039 14.9141C10.3984 14.9141 9.08595 13.6055 9.08595 11.9961C9.08595 10.3867 10.3945 9.07812 12.0039 9.07812C13.6133 9.07812 14.9219 10.3867 14.9219 11.9961C14.9219 13.6055 13.6094 14.9141 12.0039 14.9141ZM17.1641 18.8203C17.9336 18.5117 18.5234 17.9219 18.8281 17.1562C19.2201 16.1712 19.1983 14.0165 19.1842 12.6198C19.1818 12.3881 19.1797 12.1773 19.1797 11.9961C19.1797 11.8149 19.1818 11.6041 19.1842 11.3725C19.1983 9.97647 19.2201 7.8243 18.8281 6.83593C18.5195 6.0664 17.9297 5.47656 17.1641 5.17187C16.1759 4.782 14.0108 4.80276 12.6145 4.81616C12.3879 4.81833 12.1817 4.82031 12.0039 4.82031C11.8227 4.82031 11.6119 4.81817 11.3803 4.81583C9.98428 4.80168 7.83211 4.77988 6.84375 5.17187C6.07422 5.48047 5.48438 6.07031 5.17969 6.83593C4.78981 7.82407 4.81058 9.98919 4.82397 11.3855C4.82615 11.612 4.82813 11.8183 4.82813 11.9961C4.82813 12.1773 4.82599 12.3881 4.82364 12.6197C4.8095 14.0157 4.78769 16.1679 5.17969 17.1562C5.48828 17.9258 6.07813 18.5156 6.84375 18.8203C7.83189 19.2102 9.99701 19.1894 11.3933 19.176C11.6199 19.1738 11.8262 19.1719 12.0039 19.1719C12.1851 19.1719 12.3959 19.174 12.6275 19.1764C14.0235 19.1905 16.1757 19.2123 17.1641 18.8203Z" fill="white"/>
</mask>
<g mask="url(#mask0)">
<rect width="24" height="24" fill="white"/>
</g>
</svg>
