<svg width="16" height="16" viewBox="0 0 16 16" fill="none" xmlns="http://www.w3.org/2000/svg">
<mask id="mask0" mask-type="alpha" maskUnits="userSpaceOnUse" x="3" y="1" width="10" height="14">
<path fill-rule="evenodd" clip-rule="evenodd" d="M5.74218 11.8963C6.23449 12.5976 6.81131 13.4194 7.48615 14.3977C7.73443 14.7564 8.26555 14.7564 8.51385 14.3977C9.18869 13.4194 9.76551 12.5976 10.2578 11.8963C12.5258 8.66528 13 7.98979 13 6.33337C13 3.57194 10.7614 1.33337 8 1.33337C5.23857 1.33337 3 3.57194 3 6.33337C3 7.98979 3.47416 8.66528 5.74218 11.8963ZM10.0833 6.33337C10.0833 7.48397 9.15058 8.41671 7.99998 8.41671C6.84938 8.41671 5.91665 7.48397 5.91665 6.33337C5.91665 5.18278 6.84938 4.25004 7.99998 4.25004C9.15058 4.25004 10.0833 5.18278 10.0833 6.33337Z" fill="white"/>
</mask>
<g mask="url(#mask0)">
<g opacity="0.8">
<rect width="16" height="16" fill="white"/>
</g>
</g>
</svg>
