<svg width="269" height="14" viewBox="0 0 269 14" fill="none" xmlns="http://www.w3.org/2000/svg">
<path d="M5.66846 3.27783C5.13949 3.27783 4.73112 3.46191 4.44336 3.83008C4.15983 4.19824 4.01807 4.70817 4.01807 5.35986C4.01807 6.0708 4.15137 6.59766 4.41797 6.94043C4.6888 7.2832 5.1014 7.45459 5.65576 7.45459C6.01969 7.45459 6.46615 7.35938 6.99512 7.16895V7.95605C6.79199 8.04069 6.58252 8.11263 6.3667 8.17188C6.15511 8.23112 5.9012 8.26074 5.60498 8.26074C4.78402 8.26074 4.15348 8.00684 3.71338 7.49902C3.27327 6.98698 3.05322 6.27393 3.05322 5.35986C3.05322 4.47542 3.28597 3.77295 3.75146 3.25244C4.22119 2.73193 4.86019 2.47168 5.66846 2.47168C6.21012 2.47168 6.73063 2.59863 7.22998 2.85254L6.86182 3.60156C6.40479 3.38574 6.007 3.27783 5.66846 3.27783ZM0.634766 5.35986C0.634766 4.51351 0.846354 3.72005 1.26953 2.97949C1.69271 2.23893 2.27458 1.65495 3.01514 1.22754C3.7557 0.80013 4.55339 0.586426 5.4082 0.586426C6.25456 0.586426 7.04801 0.798014 7.78857 1.22119C8.52913 1.64437 9.11312 2.22624 9.54053 2.9668C9.96794 3.70736 10.1816 4.50505 10.1816 5.35986C10.1816 6.19352 9.9764 6.9764 9.56592 7.7085C9.15544 8.44059 8.57992 9.02669 7.83936 9.4668C7.0988 9.9069 6.28841 10.127 5.4082 10.127C4.53223 10.127 3.72396 9.90902 2.9834 9.47314C2.24284 9.03304 1.6652 8.44694 1.25049 7.71484C0.840007 6.98275 0.634766 6.19775 0.634766 5.35986ZM1.30127 5.35986C1.30127 6.09196 1.48535 6.77751 1.85352 7.4165C2.22168 8.05127 2.72314 8.55273 3.35791 8.9209C3.99691 9.28483 4.68034 9.4668 5.4082 9.4668C6.14453 9.4668 6.82796 9.28271 7.4585 8.91455C8.08903 8.54639 8.58838 8.04915 8.95654 7.42285C9.32894 6.79232 9.51514 6.10465 9.51514 5.35986C9.51514 4.62354 9.33105 3.9401 8.96289 3.30957C8.59473 2.67904 8.09538 2.17969 7.46484 1.81152C6.83854 1.43913 6.15299 1.25293 5.4082 1.25293C4.67188 1.25293 3.98844 1.43701 3.35791 1.80518C2.72738 2.17334 2.22591 2.67269 1.85352 3.30322C1.48535 3.92952 1.30127 4.61507 1.30127 5.35986ZM22.1724 10H20.9028L17.5195 5.49951L16.5483 6.36279V10H15.4692V0.719727H16.5483V5.32178L20.7568 0.719727H22.0327L18.3003 4.75049L22.1724 10ZM24.3496 10H23.2959V3.04297H24.3496V10ZM23.207 1.15771C23.207 0.916504 23.2663 0.740885 23.3848 0.630859C23.5033 0.516602 23.6514 0.459473 23.8291 0.459473C23.9984 0.459473 24.1444 0.516602 24.2671 0.630859C24.3898 0.745117 24.4512 0.920736 24.4512 1.15771C24.4512 1.39469 24.3898 1.57243 24.2671 1.69092C24.1444 1.80518 23.9984 1.8623 23.8291 1.8623C23.6514 1.8623 23.5033 1.80518 23.3848 1.69092C23.2663 1.57243 23.207 1.39469 23.207 1.15771ZM31.3447 10V5.49951C31.3447 4.93245 31.2157 4.50928 30.9575 4.22998C30.6994 3.95068 30.2952 3.81104 29.7451 3.81104C29.0173 3.81104 28.484 4.00781 28.1455 4.40137C27.807 4.79492 27.6377 5.4445 27.6377 6.3501V10H26.584V3.04297H27.4409L27.6123 3.99512H27.6631C27.8789 3.65234 28.1815 3.38786 28.5708 3.20166C28.9601 3.01123 29.3939 2.91602 29.8721 2.91602C30.71 2.91602 31.3405 3.11914 31.7637 3.52539C32.1868 3.92741 32.3984 4.57275 32.3984 5.46143V10H31.3447ZM40.5742 6.51514C40.5742 7.64925 40.2886 8.53581 39.7173 9.1748C39.146 9.80957 38.3568 10.127 37.3496 10.127C36.7275 10.127 36.1753 9.98096 35.6929 9.68896C35.2104 9.39697 34.8381 8.97803 34.5757 8.43213C34.3133 7.88623 34.1821 7.24723 34.1821 6.51514C34.1821 5.38102 34.4657 4.4987 35.0327 3.86816C35.5998 3.2334 36.3869 2.91602 37.394 2.91602C38.3674 2.91602 39.1396 3.23975 39.7109 3.88721C40.2865 4.53467 40.5742 5.41064 40.5742 6.51514ZM35.2739 6.51514C35.2739 7.40381 35.4517 8.08089 35.8071 8.54639C36.1626 9.01188 36.6852 9.24463 37.375 9.24463C38.0648 9.24463 38.5874 9.014 38.9429 8.55273C39.3026 8.08724 39.4824 7.40804 39.4824 6.51514C39.4824 5.6307 39.3026 4.95996 38.9429 4.50293C38.5874 4.04167 38.0605 3.81104 37.3623 3.81104C36.6725 3.81104 36.152 4.03743 35.8008 4.49023C35.4495 4.94303 35.2739 5.618 35.2739 6.51514ZM45.665 10.127C45.2122 10.127 44.7975 10.0444 44.4209 9.87939C44.0485 9.71012 43.7354 9.45199 43.4814 9.10498H43.4053C43.4561 9.51123 43.4814 9.89632 43.4814 10.2603V13.123H42.4277V3.04297H43.2847L43.4307 3.99512H43.4814C43.7523 3.61426 44.0675 3.33919 44.4272 3.16992C44.7869 3.00065 45.1995 2.91602 45.665 2.91602C46.5876 2.91602 47.2985 3.23128 47.7979 3.86182C48.3014 4.49235 48.5532 5.37679 48.5532 6.51514C48.5532 7.65771 48.2972 8.54639 47.7852 9.18115C47.2773 9.81169 46.5706 10.127 45.665 10.127ZM45.5127 3.81104C44.8018 3.81104 44.2876 4.00781 43.9702 4.40137C43.6528 4.79492 43.4899 5.42122 43.4814 6.28027V6.51514C43.4814 7.49268 43.6444 8.19303 43.9702 8.61621C44.2961 9.03516 44.8187 9.24463 45.5381 9.24463C46.139 9.24463 46.6087 9.0013 46.9473 8.51465C47.29 8.02799 47.4614 7.35726 47.4614 6.50244C47.4614 5.63493 47.29 4.97054 46.9473 4.50928C46.6087 4.04378 46.1305 3.81104 45.5127 3.81104ZM54.6787 10L54.4692 9.00977H54.4185C54.0715 9.44564 53.7244 9.74186 53.3774 9.89844C53.0347 10.0508 52.6051 10.127 52.0889 10.127C51.3991 10.127 50.8574 9.94922 50.4639 9.59375C50.0745 9.23828 49.8799 8.73258 49.8799 8.07666C49.8799 6.67171 51.0034 5.93538 53.2505 5.86768L54.4312 5.82959V5.39795C54.4312 4.85205 54.3127 4.45003 54.0757 4.19189C53.8429 3.92952 53.4684 3.79834 52.9521 3.79834C52.3724 3.79834 51.7165 3.97607 50.9844 4.33154L50.6606 3.52539C51.0034 3.33919 51.3779 3.1932 51.7842 3.0874C52.1947 2.98161 52.6051 2.92871 53.0156 2.92871C53.8451 2.92871 54.4587 3.11279 54.8564 3.48096C55.2585 3.84912 55.4595 4.43945 55.4595 5.25195V10H54.6787ZM52.2983 9.25732C52.9543 9.25732 53.4684 9.07747 53.8408 8.71777C54.2174 8.35807 54.4058 7.85449 54.4058 7.20703V6.57861L53.3521 6.62305C52.5142 6.65267 51.909 6.78385 51.5366 7.0166C51.1685 7.24512 50.9844 7.6027 50.9844 8.08936C50.9844 8.47021 51.0986 8.76009 51.3271 8.95898C51.5599 9.15788 51.8836 9.25732 52.2983 9.25732ZM60.8105 2.91602C61.1195 2.91602 61.3966 2.94141 61.6421 2.99219L61.4961 3.96973C61.2083 3.90625 60.9544 3.87451 60.7344 3.87451C60.1715 3.87451 59.6891 4.10303 59.2871 4.56006C58.8893 5.01709 58.6904 5.58626 58.6904 6.26758V10H57.6367V3.04297H58.5063L58.627 4.33154H58.6777C58.9359 3.87874 59.2469 3.52962 59.6108 3.28418C59.9748 3.03874 60.3747 2.91602 60.8105 2.91602ZM63.9844 6.43896C64.1663 6.18083 64.4435 5.84229 64.8159 5.42334L67.063 3.04297H68.3135L65.4951 6.00732L68.5103 10H67.2344L64.7778 6.71191L63.9844 7.39746V10H62.9434V0.123047H63.9844V5.35986C63.9844 5.59261 63.9674 5.95231 63.9336 6.43896H63.9844ZM76.1655 10H75.0864V1.67822H72.1475V0.719727H79.1045V1.67822H76.1655V10ZM85.1094 10V5.49951C85.1094 4.93245 84.9803 4.50928 84.7222 4.22998C84.464 3.95068 84.0599 3.81104 83.5098 3.81104C82.7777 3.81104 82.2424 4.00993 81.9038 4.40771C81.5695 4.8055 81.4023 5.45719 81.4023 6.36279V10H80.3486V0.123047H81.4023V3.11279C81.4023 3.47249 81.3854 3.77083 81.3516 4.00781H81.415C81.6224 3.6735 81.9165 3.41113 82.2974 3.2207C82.6825 3.02604 83.1204 2.92871 83.6113 2.92871C84.4619 2.92871 85.0988 3.13184 85.522 3.53809C85.9494 3.9401 86.1631 4.58122 86.1631 5.46143V10H85.1094ZM91.2729 10.127C90.2446 10.127 89.4321 9.8138 88.8354 9.1875C88.243 8.5612 87.9468 7.69157 87.9468 6.57861C87.9468 5.45719 88.2218 4.56641 88.772 3.90625C89.3263 3.24609 90.069 2.91602 91 2.91602C91.8717 2.91602 92.5615 3.20378 93.0693 3.7793C93.5771 4.35059 93.8311 5.10596 93.8311 6.04541V6.71191H89.0386C89.0597 7.52865 89.265 8.1486 89.6543 8.57178C90.0479 8.99495 90.6001 9.20654 91.311 9.20654C92.0601 9.20654 92.8006 9.04997 93.5327 8.73682V9.67627C93.1603 9.83708 92.807 9.95133 92.4727 10.019C92.1426 10.091 91.7427 10.127 91.2729 10.127ZM90.9873 3.79834C90.4287 3.79834 89.9823 3.98031 89.6479 4.34424C89.3179 4.70817 89.1232 5.21175 89.064 5.85498H92.7012C92.7012 5.19059 92.5531 4.68278 92.2568 4.33154C91.9606 3.97607 91.5374 3.79834 90.9873 3.79834ZM99.9121 10L99.7026 9.00977H99.6519C99.3049 9.44564 98.9578 9.74186 98.6108 9.89844C98.2681 10.0508 97.8385 10.127 97.3223 10.127C96.6325 10.127 96.0908 9.94922 95.6973 9.59375C95.3079 9.23828 95.1133 8.73258 95.1133 8.07666C95.1133 6.67171 96.2368 5.93538 98.4839 5.86768L99.6646 5.82959V5.39795C99.6646 4.85205 99.5461 4.45003 99.3091 4.19189C99.0763 3.92952 98.7018 3.79834 98.1855 3.79834C97.6058 3.79834 96.9499 3.97607 96.2178 4.33154L95.894 3.52539C96.2368 3.33919 96.6113 3.1932 97.0176 3.0874C97.4281 2.98161 97.8385 2.92871 98.249 2.92871C99.0785 2.92871 99.6921 3.11279 100.09 3.48096C100.492 3.84912 100.693 4.43945 100.693 5.25195V10H99.9121ZM97.5317 9.25732C98.1877 9.25732 98.7018 9.07747 99.0742 8.71777C99.4508 8.35807 99.6392 7.85449 99.6392 7.20703V6.57861L98.5854 6.62305C97.7476 6.65267 97.1424 6.78385 96.77 7.0166C96.4019 7.24512 96.2178 7.6027 96.2178 8.08936C96.2178 8.47021 96.332 8.76009 96.5605 8.95898C96.7933 9.15788 97.117 9.25732 97.5317 9.25732ZM105.117 9.25732C105.303 9.25732 105.483 9.24463 105.657 9.21924C105.83 9.18962 105.968 9.15999 106.069 9.13037V9.93652C105.955 9.99154 105.786 10.036 105.562 10.0698C105.341 10.1079 105.143 10.127 104.965 10.127C103.619 10.127 102.946 9.41813 102.946 8.00049V3.86182H101.95V3.354L102.946 2.91602L103.391 1.43066H104V3.04297H106.019V3.86182H104V7.95605C104 8.375 104.099 8.69661 104.298 8.9209C104.497 9.14518 104.77 9.25732 105.117 9.25732ZM110.64 2.91602C110.949 2.91602 111.226 2.94141 111.471 2.99219L111.325 3.96973C111.037 3.90625 110.784 3.87451 110.563 3.87451C110.001 3.87451 109.518 4.10303 109.116 4.56006C108.718 5.01709 108.52 5.58626 108.52 6.26758V10H107.466V3.04297H108.335L108.456 4.33154H108.507C108.765 3.87874 109.076 3.52962 109.44 3.28418C109.804 3.03874 110.204 2.91602 110.64 2.91602ZM115.711 10.127C114.683 10.127 113.871 9.8138 113.274 9.1875C112.681 8.5612 112.385 7.69157 112.385 6.57861C112.385 5.45719 112.66 4.56641 113.21 3.90625C113.765 3.24609 114.507 2.91602 115.438 2.91602C116.31 2.91602 117 3.20378 117.508 3.7793C118.016 4.35059 118.27 5.10596 118.27 6.04541V6.71191H113.477C113.498 7.52865 113.703 8.1486 114.093 8.57178C114.486 8.99495 115.039 9.20654 115.75 9.20654C116.499 9.20654 117.239 9.04997 117.971 8.73682V9.67627C117.599 9.83708 117.245 9.95133 116.911 10.019C116.581 10.091 116.181 10.127 115.711 10.127ZM115.426 3.79834C114.867 3.79834 114.421 3.98031 114.086 4.34424C113.756 4.70817 113.562 5.21175 113.502 5.85498H117.14C117.14 5.19059 116.992 4.68278 116.695 4.33154C116.399 3.97607 115.976 3.79834 115.426 3.79834ZM124.56 8.10205C124.56 8.74951 124.319 9.24886 123.836 9.6001C123.354 9.95133 122.677 10.127 121.805 10.127C120.883 10.127 120.163 9.98096 119.647 9.68896V8.71143C119.981 8.8807 120.339 9.014 120.72 9.11133C121.105 9.20866 121.475 9.25732 121.831 9.25732C122.381 9.25732 122.804 9.17057 123.1 8.99707C123.396 8.81934 123.544 8.55062 123.544 8.19092C123.544 7.92008 123.426 7.68945 123.189 7.49902C122.956 7.30436 122.499 7.07585 121.818 6.81348C121.17 6.57227 120.709 6.36279 120.434 6.18506C120.163 6.00309 119.96 5.79785 119.825 5.56934C119.694 5.34082 119.628 5.06787 119.628 4.75049C119.628 4.18343 119.859 3.73698 120.32 3.41113C120.781 3.08105 121.414 2.91602 122.218 2.91602C122.967 2.91602 123.699 3.06836 124.414 3.37305L124.04 4.22998C123.341 3.94222 122.709 3.79834 122.142 3.79834C121.642 3.79834 121.266 3.87663 121.012 4.0332C120.758 4.18978 120.631 4.4056 120.631 4.68066C120.631 4.86686 120.677 5.02555 120.771 5.15674C120.868 5.28792 121.022 5.41276 121.234 5.53125C121.445 5.64974 121.852 5.82113 122.453 6.04541C123.278 6.34587 123.834 6.64844 124.122 6.95312C124.414 7.25781 124.56 7.64079 124.56 8.10205ZM126.128 9.32715C126.128 9.04362 126.191 8.82992 126.318 8.68604C126.45 8.53792 126.636 8.46387 126.877 8.46387C127.122 8.46387 127.313 8.53792 127.448 8.68604C127.588 8.82992 127.658 9.04362 127.658 9.32715C127.658 9.60221 127.588 9.8138 127.448 9.96191C127.309 10.11 127.118 10.1841 126.877 10.1841C126.661 10.1841 126.481 10.1185 126.337 9.9873C126.198 9.85189 126.128 9.63184 126.128 9.32715ZM133.282 0.719727H135.903C137.135 0.719727 138.026 0.903809 138.576 1.27197C139.126 1.64014 139.401 2.22201 139.401 3.01758C139.401 3.56771 139.246 4.02262 138.938 4.38232C138.633 4.73779 138.186 4.96842 137.598 5.07422V5.1377C139.007 5.37891 139.712 6.11947 139.712 7.35938C139.712 8.1888 139.431 8.83626 138.868 9.30176C138.309 9.76725 137.526 10 136.519 10H133.282V0.719727ZM134.361 4.69336H136.138C136.9 4.69336 137.448 4.57487 137.782 4.33789C138.117 4.09668 138.284 3.69255 138.284 3.12549C138.284 2.60498 138.097 2.23047 137.725 2.00195C137.353 1.76921 136.76 1.65283 135.948 1.65283H134.361V4.69336ZM134.361 5.60742V9.07959H136.297C137.046 9.07959 137.609 8.93571 137.985 8.64795C138.366 8.35596 138.557 7.90104 138.557 7.2832C138.557 6.70768 138.362 6.28451 137.973 6.01367C137.588 5.74284 136.999 5.60742 136.208 5.60742H134.361ZM144.333 10.127C143.326 10.127 142.545 9.81803 141.991 9.2002C141.441 8.57812 141.166 7.70003 141.166 6.56592C141.166 5.40218 141.445 4.50293 142.003 3.86816C142.566 3.2334 143.366 2.91602 144.403 2.91602C144.737 2.91602 145.071 2.95199 145.406 3.02393C145.74 3.09587 146.002 3.1805 146.193 3.27783L145.869 4.17285C145.636 4.07975 145.382 4.00358 145.107 3.94434C144.832 3.88086 144.589 3.84912 144.377 3.84912C142.964 3.84912 142.257 4.75049 142.257 6.55322C142.257 7.40804 142.429 8.06396 142.771 8.521C143.118 8.97803 143.631 9.20654 144.308 9.20654C144.887 9.20654 145.482 9.08171 146.091 8.83203V9.76514C145.626 10.0063 145.04 10.127 144.333 10.127ZM150.687 10.127C149.659 10.127 148.846 9.8138 148.25 9.1875C147.657 8.5612 147.361 7.69157 147.361 6.57861C147.361 5.45719 147.636 4.56641 148.186 3.90625C148.74 3.24609 149.483 2.91602 150.414 2.91602C151.286 2.91602 151.976 3.20378 152.483 3.7793C152.991 4.35059 153.245 5.10596 153.245 6.04541V6.71191H148.453C148.474 7.52865 148.679 8.1486 149.068 8.57178C149.462 8.99495 150.014 9.20654 150.725 9.20654C151.474 9.20654 152.215 9.04997 152.947 8.73682V9.67627C152.574 9.83708 152.221 9.95133 151.887 10.019C151.557 10.091 151.157 10.127 150.687 10.127ZM150.401 3.79834C149.843 3.79834 149.396 3.98031 149.062 4.34424C148.732 4.70817 148.537 5.21175 148.478 5.85498H152.115C152.115 5.19059 151.967 4.68278 151.671 4.33154C151.375 3.97607 150.951 3.79834 150.401 3.79834ZM159.479 10H158.425V3.04297H164.265V10H163.198V3.95703H159.479V10ZM169.736 10.127C169.284 10.127 168.869 10.0444 168.492 9.87939C168.12 9.71012 167.807 9.45199 167.553 9.10498H167.477C167.527 9.51123 167.553 9.89632 167.553 10.2603V13.123H166.499V3.04297H167.356L167.502 3.99512H167.553C167.824 3.61426 168.139 3.33919 168.499 3.16992C168.858 3.00065 169.271 2.91602 169.736 2.91602C170.659 2.91602 171.37 3.23128 171.869 3.86182C172.373 4.49235 172.625 5.37679 172.625 6.51514C172.625 7.65771 172.368 8.54639 171.856 9.18115C171.349 9.81169 170.642 10.127 169.736 10.127ZM169.584 3.81104C168.873 3.81104 168.359 4.00781 168.042 4.40137C167.724 4.79492 167.561 5.42122 167.553 6.28027V6.51514C167.553 7.49268 167.716 8.19303 168.042 8.61621C168.367 9.03516 168.89 9.24463 169.609 9.24463C170.21 9.24463 170.68 9.0013 171.019 8.51465C171.361 8.02799 171.533 7.35726 171.533 6.50244C171.533 5.63493 171.361 4.97054 171.019 4.50928C170.68 4.04378 170.202 3.81104 169.584 3.81104ZM178.75 10L178.541 9.00977H178.49C178.143 9.44564 177.796 9.74186 177.449 9.89844C177.106 10.0508 176.676 10.127 176.16 10.127C175.47 10.127 174.929 9.94922 174.535 9.59375C174.146 9.23828 173.951 8.73258 173.951 8.07666C173.951 6.67171 175.075 5.93538 177.322 5.86768L178.502 5.82959V5.39795C178.502 4.85205 178.384 4.45003 178.147 4.19189C177.914 3.92952 177.54 3.79834 177.023 3.79834C176.444 3.79834 175.788 3.97607 175.056 4.33154L174.732 3.52539C175.075 3.33919 175.449 3.1932 175.855 3.0874C176.266 2.98161 176.676 2.92871 177.087 2.92871C177.916 2.92871 178.53 3.11279 178.928 3.48096C179.33 3.84912 179.531 4.43945 179.531 5.25195V10H178.75ZM176.37 9.25732C177.026 9.25732 177.54 9.07747 177.912 8.71777C178.289 8.35807 178.477 7.85449 178.477 7.20703V6.57861L177.423 6.62305C176.585 6.65267 175.98 6.78385 175.608 7.0166C175.24 7.24512 175.056 7.6027 175.056 8.08936C175.056 8.47021 175.17 8.76009 175.398 8.95898C175.631 9.15788 175.955 9.25732 176.37 9.25732ZM187.351 4.78857C187.351 5.24137 187.22 5.58626 186.958 5.82324C186.699 6.05599 186.335 6.21257 185.866 6.29297V6.3501C186.458 6.4305 186.89 6.604 187.161 6.87061C187.436 7.13721 187.573 7.50537 187.573 7.9751C187.573 8.62256 187.334 9.12191 186.856 9.47314C186.382 9.82438 185.688 10 184.774 10H181.708V3.04297H184.761C186.488 3.04297 187.351 3.62484 187.351 4.78857ZM186.52 7.90527C186.52 7.52865 186.376 7.2557 186.088 7.08643C185.804 6.91292 185.333 6.82617 184.672 6.82617H182.762V9.11768H184.698C185.912 9.11768 186.52 8.71354 186.52 7.90527ZM186.323 4.89014C186.323 4.5516 186.192 4.3125 185.929 4.17285C185.671 4.02897 185.278 3.95703 184.749 3.95703H182.762V5.91846H184.545C185.197 5.91846 185.656 5.83805 185.923 5.67725C186.189 5.51644 186.323 5.25407 186.323 4.89014ZM193.388 10L193.178 9.00977H193.127C192.78 9.44564 192.433 9.74186 192.086 9.89844C191.744 10.0508 191.314 10.127 190.798 10.127C190.108 10.127 189.566 9.94922 189.173 9.59375C188.784 9.23828 188.589 8.73258 188.589 8.07666C188.589 6.67171 189.712 5.93538 191.959 5.86768L193.14 5.82959V5.39795C193.14 4.85205 193.022 4.45003 192.785 4.19189C192.552 3.92952 192.177 3.79834 191.661 3.79834C191.081 3.79834 190.425 3.97607 189.693 4.33154L189.37 3.52539C189.712 3.33919 190.087 3.1932 190.493 3.0874C190.904 2.98161 191.314 2.92871 191.725 2.92871C192.554 2.92871 193.168 3.11279 193.565 3.48096C193.967 3.84912 194.168 4.43945 194.168 5.25195V10H193.388ZM191.007 9.25732C191.663 9.25732 192.177 9.07747 192.55 8.71777C192.926 8.35807 193.115 7.85449 193.115 7.20703V6.57861L192.061 6.62305C191.223 6.65267 190.618 6.78385 190.246 7.0166C189.877 7.24512 189.693 7.6027 189.693 8.08936C189.693 8.47021 189.808 8.76009 190.036 8.95898C190.269 9.15788 190.593 9.25732 191.007 9.25732ZM201.049 5.93115C202.365 5.93115 203.023 5.56722 203.023 4.83936C203.023 4.15381 202.49 3.81104 201.424 3.81104C201.098 3.81104 200.802 3.84066 200.535 3.8999C200.269 3.95915 199.919 4.07764 199.488 4.25537L199.113 3.39844C199.833 3.07682 200.618 2.91602 201.468 2.91602C202.268 2.91602 202.899 3.08105 203.36 3.41113C203.821 3.73698 204.052 4.18343 204.052 4.75049C204.052 5.52913 203.618 6.03906 202.75 6.28027V6.33105C203.284 6.48763 203.673 6.71191 203.918 7.00391C204.164 7.29167 204.287 7.65348 204.287 8.08936C204.287 8.73258 204.026 9.23405 203.506 9.59375C202.99 9.94922 202.274 10.127 201.36 10.127C200.357 10.127 199.583 9.97673 199.037 9.67627V8.71143C199.812 9.07536 200.594 9.25732 201.386 9.25732C201.995 9.25732 202.454 9.15365 202.763 8.94629C203.076 8.7347 203.233 8.43213 203.233 8.03857C203.233 7.23031 202.575 6.82617 201.259 6.82617H200.294V5.93115H201.049ZM210.285 10L210.076 9.00977H210.025C209.678 9.44564 209.331 9.74186 208.984 9.89844C208.641 10.0508 208.212 10.127 207.695 10.127C207.006 10.127 206.464 9.94922 206.07 9.59375C205.681 9.23828 205.486 8.73258 205.486 8.07666C205.486 6.67171 206.61 5.93538 208.857 5.86768L210.038 5.82959V5.39795C210.038 4.85205 209.919 4.45003 209.682 4.19189C209.449 3.92952 209.075 3.79834 208.559 3.79834C207.979 3.79834 207.323 3.97607 206.591 4.33154L206.267 3.52539C206.61 3.33919 206.984 3.1932 207.391 3.0874C207.801 2.98161 208.212 2.92871 208.622 2.92871C209.451 2.92871 210.065 3.11279 210.463 3.48096C210.865 3.84912 211.066 4.43945 211.066 5.25195V10H210.285ZM207.905 9.25732C208.561 9.25732 209.075 9.07747 209.447 8.71777C209.824 8.35807 210.012 7.85449 210.012 7.20703V6.57861L208.958 6.62305C208.121 6.65267 207.515 6.78385 207.143 7.0166C206.775 7.24512 206.591 7.6027 206.591 8.08936C206.591 8.47021 206.705 8.76009 206.934 8.95898C207.166 9.15788 207.49 9.25732 207.905 9.25732ZM218.429 9.09229H221.514V3.05566H222.568V9.09229H223.564V12.3931H222.498V10H213.243V3.05566H214.297V9.09229H217.375V3.05566H218.429V9.09229ZM225.9 3.04297V7.45459L225.856 8.60986L225.837 8.97168L229.601 3.04297H230.915V10H229.931V5.74707L229.95 4.90918L229.982 4.08398L226.224 10H224.91V3.04297H225.9ZM238.335 9.09229H241.42V3.05566H242.474V9.09229H243.471V12.3931H242.404V10H233.149V3.05566H234.203V9.09229H237.282V3.05566H238.335V9.09229ZM247.755 10.127C246.727 10.127 245.915 9.8138 245.318 9.1875C244.725 8.5612 244.429 7.69157 244.429 6.57861C244.429 5.45719 244.704 4.56641 245.254 3.90625C245.809 3.24609 246.551 2.91602 247.482 2.91602C248.354 2.91602 249.044 3.20378 249.552 3.7793C250.06 4.35059 250.313 5.10596 250.313 6.04541V6.71191H245.521C245.542 7.52865 245.747 8.1486 246.137 8.57178C246.53 8.99495 247.083 9.20654 247.793 9.20654C248.542 9.20654 249.283 9.04997 250.015 8.73682V9.67627C249.643 9.83708 249.289 9.95133 248.955 10.019C248.625 10.091 248.225 10.127 247.755 10.127ZM247.47 3.79834C246.911 3.79834 246.465 3.98031 246.13 4.34424C245.8 4.70817 245.606 5.21175 245.546 5.85498H249.184C249.184 5.19059 249.035 4.68278 248.739 4.33154C248.443 3.97607 248.02 3.79834 247.47 3.79834ZM253.17 3.04297V5.95654H257.067V3.04297H258.121V10H257.067V6.86426H253.17V10H252.116V3.04297H253.17ZM261.409 5.91846H263.307C264.192 5.91846 264.845 6.0835 265.269 6.41357C265.696 6.73942 265.91 7.22819 265.91 7.87988C265.91 8.57812 265.683 9.1071 265.23 9.4668C264.782 9.82227 264.12 10 263.244 10H260.355V3.04297H261.409V5.91846ZM268.131 10H267.078V3.04297H268.131V10ZM261.409 6.82617V9.11768H263.193C264.31 9.11768 264.869 8.72624 264.869 7.94336C264.869 7.55404 264.74 7.27051 264.481 7.09277C264.223 6.91504 263.783 6.82617 263.161 6.82617H261.409Z" fill="#BBBBBB"/>
</svg>
