<svg width="24" height="24" viewBox="0 0 24 24" fill="none" xmlns="http://www.w3.org/2000/svg">
<mask id="mask0" mask-type="alpha" maskUnits="userSpaceOnUse" x="2" y="6" width="20" height="12">
<path fill-rule="evenodd" clip-rule="evenodd" d="M20.9238 7.19781C21.0522 6.76378 20.9238 6.44434 20.3057 6.44434H18.2606C17.7397 6.44434 17.5002 6.71864 17.3717 7.0242C17.3717 7.0242 16.33 9.56239 14.8578 11.2082C14.3821 11.6839 14.1634 11.8367 13.9029 11.8367C13.7745 11.8367 13.5766 11.6839 13.5766 11.2499V7.19781C13.5766 6.67697 13.4307 6.44434 13.0002 6.44434H9.78488C9.4585 6.44434 9.26405 6.68739 9.26405 6.91309C9.26405 7.40614 10.0002 7.52072 10.0766 8.90961V11.9235C10.0766 12.5832 9.9585 12.7048 9.69808 12.7048C9.00363 12.7048 7.31613 10.1561 6.31613 7.23947C6.11475 6.6735 5.91683 6.44434 5.39252 6.44434H3.34738C2.76405 6.44434 2.646 6.71864 2.646 7.0242C2.646 7.56586 3.34044 10.2568 5.87863 13.8124C7.56961 16.2395 9.95155 17.5554 12.1182 17.5554C13.4203 17.5554 13.58 17.2638 13.58 16.7603C13.58 14.4409 13.462 14.2221 14.1147 14.2221C14.4168 14.2221 14.9377 14.3749 16.1529 15.545C17.5418 16.9339 17.771 17.5554 18.5488 17.5554H20.5939C21.1772 17.5554 21.4724 17.2638 21.3022 16.6874C20.9134 15.4756 18.2849 12.9825 18.1668 12.8159C17.8647 12.427 17.9516 12.2534 18.1668 11.9061C18.1703 11.9027 20.6668 8.38878 20.9238 7.19781Z" fill="white"/>
</mask>
<g mask="url(#mask0)">
<rect width="24" height="24" fill="white"/>
</g>
</svg>
